<svg xmlns="http://www.w3.org/2000/svg" viewBox="0 0 169.42 115.77"><path d="M41.2,55.68a41.85,41.85,0,0,1-9.77-12.62,36.14,36.14,0,0,1-3.31-11.93c-.17-1.7-.36-5.44.5-7s4.1-3.63,5.59-4.46A19,19,0,0,1,45,17a16.33,16.33,0,0,1,8.5,3.28,20.79,20.79,0,0,1,3,2.91c.47.11,1,.19,1.46.32a9,9,0,0,1,3.29,1.64A18.74,18.74,0,0,1,65,29.84l7.61-8.26a6.89,6.89,0,0,1,4.63-2.32c2.65-.21,5.34-.31,8-.44l8.18-.41h0l.13,0c.75-1.11,1.41-2.16,2.24-3.24a39.81,39.81,0,0,1,6-6.24A38.27,38.27,0,0,1,126.36,0c8.29-.11,16.37,2,22.52,7.78a27.56,27.56,0,0,1,4.76,5.93c.62,1,1.09,2.16,1.68,3.16.41.38,1.18.86,1.62,1.19a26.68,26.68,0,0,1,3.41,3,21.11,21.11,0,0,1,6.14,13.66,33.47,33.47,0,0,1,0,4.13c0,.63-.14,1.44-.13,2s.29,1.11.42,1.6a31.46,31.46,0,0,1,.66,3.59,40.09,40.09,0,0,1-.7,12.55,23.15,23.15,0,0,1-.82,3.07A8.63,8.63,0,0,0,167.06,63c1.27,1.42,2.59,3,2.32,5a14.08,14.08,0,0,1-2,5c-.92,1.7-2.67,3.3-4.73,3.15h-.1l-.1,0-2.78-.47c-.79-.14-1.93-.29-2.76-.52l-.25,0-.47.43a9.31,9.31,0,0,1,4.16,6.91,8.39,8.39,0,0,1-2.11,6c-.82,1-1.79,1.63-2.57,2.49a29.11,29.11,0,0,1-3.09,3.33,14,14,0,0,1-7.63,3.23c-6.06.67-12-.53-18.06-1-.87-.07-5.64-.45-6.32.07-.93.85-1.86,1.93-2.78,2.82a66.36,66.36,0,0,1-6.39,5.47,49.56,49.56,0,0,1-21.77,9.67,69.58,69.58,0,0,1-20.17.54,33.44,33.44,0,0,1-6.3-1.41,33.61,33.61,0,0,1-18.53-.37,28.49,28.49,0,0,1-14.43-11,27.75,27.75,0,0,1-9.75-4.73,29.79,29.79,0,0,1-6.08-6A22.4,22.4,0,0,1,9.6,90.64c-4-1.42-7.26-4-8.78-8.07C-3,72.4,7.19,63.17,15.29,59.05A24.64,24.64,0,0,1,29,56.36c2.25.24,6.62,1.17,7.68,3.49.08.16.15.33.23.51Z" style="fill:#fff;fill-rule:evenodd"/><path d="M37.79,62.75l6.68-7.25c-2.41-2-8-7-11-13.41-3.91-8.3-3.39-15.9-2.88-16.82s7.32-6.62,14.17-6a15.06,15.06,0,0,1,10.43,5.87c.52.41,2.65.23,4.6,1.79s4,5.47,4,5.47a1.53,1.53,0,0,0,1.73.2l.52-.57a1.32,1.32,0,0,1,.36-.38l7.91-8.59a4.53,4.53,0,0,1,3.07-1.53c2-.16,16.1-.85,16.1-.85a2.52,2.52,0,0,0,1.84-.86,36.47,36.47,0,0,1,31-17.54c21.48-.29,26.26,15,27.12,16,.6.72,2.78,1.79,5.18,4.31a18.79,18.79,0,0,1,5.52,12.24,60.84,60.84,0,0,1-.09,6.2c.12,1.27,2.54,6.33.41,17a21.45,21.45,0,0,1-.81,3h0c-.74,2.35,3.69,4.43,3.4,6.68-.18,1.33-.67,2.16-1.79,4.23s-2.56,2-2.56,2-5-.83-5.45-1a5.76,5.76,0,0,0-1.77.16h0a28.4,28.4,0,0,1-3,2.49s-.61.37.44.85,4.8,2.46,5,6.26-3.05,5.7-4.09,6.85-3.51,5.19-9.27,5.82-12.41-.6-17.65-1-6.91-.2-7.94.61-12.44,14.69-29.84,17.45-26-1-26-1a31,31,0,0,1-17.91-.11,25.84,25.84,0,0,1-13.7-10.89,23.65,23.65,0,0,1-9.79-4.49c-4.9-3.74-6.11-6.39-6.11-6.39S5.79,89.31,3,81.76s4-15.89,13.37-20.67S34,59.42,34.58,60.8s2.42,7,2.42,7,.61.78,1.33.6a1.23,1.23,0,0,0,.8-1.41C39.07,66.59,37.79,62.75,37.79,62.75Z" style="fill:#171928;fill-rule:evenodd"/><path d="M36.26,29.24A38.88,38.88,0,0,0,47.55,49.86a42,42,0,0,0,21.88,10.6s-8.29-1.39-9-6.22S66.3,49.49,72,52s9.47,4.12,11.8,3.2-.63-7.12-1.72-7.52-4.29-.09-10-2-6.91-2.59-7.4-2.67-1.21.21-1.9,1.71-2.16,4.43-5.62,5a6.59,6.59,0,0,1-5.27-1.06S56.11,49,58.09,46s2.51-5,2-7.23-4.17-7.31-5.61-8-2.36-.4-3.69-1.49-2.65-3.57-6.33-4.21S36.64,27.47,36.26,29.24Z" style="fill:#fff;fill-rule:evenodd"/><path d="M71.49,38.83l4.06-4.27L76,29l-8.1,8.71a11.31,11.31,0,0,0,3.58,1.09Zm-27.85,25,1,3.31,6.59-7a8.26,8.26,0,0,0-2.89-.54c-.27,0-.53,0-.79,0Z" style="fill:#46c7f0;fill-rule:evenodd"/><path d="M80.76,28.12l-.4,12.09s.28,1.41,1.38.84.54-4.35,2.45-8.44,3.91-4.84,3.91-4.84Z" style="fill:#46c7f0;fill-rule:evenodd"/><path d="M14.18,83s-5.24-.34-5.52-5.24,5.52-8.81,11-10.71,8.81-1.38,9.32-1.27,2.16,6.68,2.08,7.06-1.15,0-3.28.55S24.67,74.6,25,74.65s3.23.38,5,.78,2.05.46,2.31.72,0,.69-.18,1-1.95,1.21-3.68,5.9-.89,7.63-1.21,7.58a20.84,20.84,0,0,1-7.86-7.29,22.31,22.31,0,0,1-3.08-7.63A7.81,7.81,0,0,0,14.18,83Z" style="fill:#46c7f0;fill-rule:evenodd"/><path d="M36.13,76.81s-4.81,5-5.39,10,.26,6.68.92,7a17.09,17.09,0,0,0,5.52,1.87,19,19,0,0,0,7.47,0c.43-.16-2.11-4.39-1.77-10.78a21.65,21.65,0,0,1,3-10.14C45.88,74.64,38.68,75.1,36.13,76.81Z" style="fill:#fff;fill-rule:evenodd"/><path d="M51.52,72.59a20.17,20.17,0,0,0-3.63,16.88c2.25,10.19,11.64,14.11,12.27,13.82s-2.48-1.56-4.2-4-2.05-3.49-1.82-3.78S60,96,69.38,94.08,82,89.24,82,89.24L79.2,86.07s-.78-.78.28-1.67,7.89-3.92,7.89-3.92a3.58,3.58,0,0,1,2.39,0c1.13.46,8.18,6.53,8.27,6.25s-1.1-3.46-.75-3.86a22.15,22.15,0,0,1,3.26-1.7s.86-.75.06-1.15-5.87-3.4-9.21-11.06-2.19-12-2.88-11.75-1.56,7.43-8.12,9-13.77-1.55-13.77-1.55S61.7,70.32,51.52,72.59Z" style="fill:#fff;fill-rule:evenodd"/><path d="M103.52,76.38c6.74,5.87,15.86,8.84,24.76,7.07-8.5-1.52-16-3.67-22.77-9.71h0a2.41,2.41,0,0,0-1.77.32A1.62,1.62,0,0,0,103.52,76.38Z" style="fill:#46c7f0;fill-rule:evenodd"/><path d="M93,55.29a29.16,29.16,0,0,0,3,11.39,1.84,1.84,0,0,0,1.92.33,1.32,1.32,0,0,0,.54-1.61h0A70.66,70.66,0,0,1,93,55.29Z" style="fill:#46c7f0;fill-rule:evenodd"/><path d="M140.53,81.92l.09,0,5.73,2.22s.79.23.56,1.86-4,3.2-4.41,3.61,2.77.25,4.76-1.32a6.61,6.61,0,0,0,2.24-3c.29-.31,2.46-.79,2.84-1.87s-.24-1.87-2.06-2.52-4.06-1.32-4.22-1.38S140.53,81.92,140.53,81.92Z" style="fill:#46c7f0;fill-rule:evenodd"/><path d="M65.76,106.1c14.76,5.19,34.27-2.2,45-12.85,0,0,.32-.18.27-.93s-1-.93-1.32-.93C108.5,91.39,91.87,107.27,65.76,106.1Z" style="fill:#46c7f0;fill-rule:evenodd"/><path d="M114.12,72.38A33.24,33.24,0,0,1,104,62.59c-3.74-6.05-4.49-10.43-3.22-13.19s4.95-2.36,6,1,2.59,10.94,11.46,17.16,14.8,5.87,15.49,5.76,1.59-1,2.45-1.1,6.86.9,7.2,1,0,1.15-.52,1.53-6,1.52-14.28-.2a30.64,30.64,0,0,1-13.76-7.14s-1-.12-1.7,1.18S114.12,72.38,114.12,72.38Z" style="fill:#fff;fill-rule:evenodd"/><path d="M82.27,85.82A57.31,57.31,0,0,0,87,90.62a2.33,2.33,0,0,0,1.13.66,1.67,1.67,0,0,0,.86,0,36.32,36.32,0,0,0,5.67-2.65.72.72,0,0,0,.09-1.24c-.53-.51-4.27-3.28-5.44-4.15a2.33,2.33,0,0,0-1.15-.47,1.63,1.63,0,0,0-.58,0c-.63.17-5.24,2.35-5.24,2.35S81.94,85.36,82.27,85.82Z" style="fill:#46c7f0;fill-rule:evenodd"/><path d="M103.54,24.52l1.29.57s.43.15,1-.6S110,19.1,110,19.1a2.35,2.35,0,0,0-.65-.3,14.27,14.27,0,0,0-2.32.91C106.83,19.87,103.54,24.52,103.54,24.52Z" style="fill:#fff;fill-rule:evenodd"/><path d="M108.75,15.71a2.59,2.59,0,0,1,.89-.06A16.45,16.45,0,0,1,112,16.74c.22.16.33.58.42.62A30.4,30.4,0,0,1,122.51,12a44.82,44.82,0,0,1,14.29-1.62C130.09,4.91,114.46,9.73,108.75,15.71Z" style="fill:#46c7f0;fill-rule:evenodd"/><path d="M110.36,26.14a7.61,7.61,0,0,1,1.5,4.55c.2,3.17-.6,5.07-.43,5.21a26.87,26.87,0,0,1,15.78-12.18c11.4-3.11,21,.18,24.19,2.48s5.21,6,5.3,5.64S152.84,22,141,20.47a36.91,36.91,0,0,0-22.52,4.61c-1.27.8.17-1.9,3.31-4.38s5.66-3,6.33-3.9-.79-3.41-6-1.46S111,23.15,110.36,26.14Z" style="fill:#fff;fill-rule:evenodd"/><path d="M147.85,69.77c6.65-2.68,12.44-19.71,10.85-26.5C158.7,43.27,163.68,62.22,147.85,69.77Z" style="fill:#fff;fill-rule:evenodd"/><path d="M157.06,68c.2,0,4.41,1.27,4.41,1.27s1,.34,1.21-.18a5.17,5.17,0,0,0,.56-1.21c0-.37-3.89-4-3.89-4A10.83,10.83,0,0,1,157.06,68Z" style="fill:#46c7f0;fill-rule:evenodd"/><path d="M126,51.29a5.21,5.21,0,0,1,4.86-3,7.67,7.67,0,0,1,7.25,6.43,6.2,6.2,0,0,1,.07,1Z" style="fill:#46c7f0;fill-rule:evenodd"/><path d="M151.16,54.28c.3-1.3-.07-2.46-1-2.78-1.09-.39-2.54.59-3.24,2.19a4,4,0,0,0-.33,2.26Z" style="fill:#46c7f0;fill-rule:evenodd"/><path d="M100.06,25.54a3.48,3.48,0,0,1,.43.22h0l6.24,3.11s1.38,2.65.12,8.17-3.72,7.87-4,7.92,0-.89.6-4.17-2-1-2-1h0c-2.74,5.55-7.6,8.76-11.07,7.19S86,39.27,88.71,33.34,96.46,23.91,100.06,25.54Z" style="fill:#46c7f0;fill-rule:evenodd"/><path d="M52.57,48.65c1.29,0,4-.4,5.52-2.66,2-3,2.51-5,2-7.23s-4.17-7.31-5.61-8-2.36-.4-3.69-1.49-2.65-3.57-6.33-4.21-7.78,2.42-8.16,4.19A38.76,38.76,0,0,0,44.7,46.83a18.26,18.26,0,0,0,7.17,1.81Z" style="fill:#46c7f0;fill-rule:evenodd"/></svg>