<svg width="24" height="28" viewBox="0 0 24 28" fill="none" xmlns="http://www.w3.org/2000/svg">
<path d="M9.518 11.5059C8.73628 11.5059 8.11914 12.1916 8.11914 13.0281C8.11914 13.8647 8.75 14.5504 9.518 14.5504C10.2997 14.5504 10.9169 13.8647 10.9169 13.0281C10.9306 12.1916 10.2997 11.5059 9.518 11.5059ZM14.5237 11.5059C13.742 11.5059 13.1249 12.1916 13.1249 13.0281C13.1249 13.8647 13.7557 14.5504 14.5237 14.5504C15.3054 14.5504 15.9226 13.8647 15.9226 13.0281C15.9226 12.1916 15.3054 11.5059 14.5237 11.5059Z" fill="#C4C4C4"/>
<path d="M21.1886 0H2.81143C1.26171 0 0 1.26171 0 2.82514V21.3669C0 22.9303 1.26171 24.192 2.81143 24.192H18.3634L17.6366 21.6549L19.392 23.2869L21.0514 24.8229L24 27.4286V2.82514C24 1.26171 22.7383 0 21.1886 0ZM15.8949 17.9109C15.8949 17.9109 15.4011 17.3211 14.9897 16.8C16.7863 16.2926 17.472 15.168 17.472 15.168C16.9097 15.5383 16.3749 15.7989 15.8949 15.9771C15.2091 16.2651 14.5509 16.4571 13.9063 16.5669C12.7317 16.7831 11.5271 16.7785 10.3543 16.5531C9.66572 16.4184 8.99091 16.221 8.33829 15.9634C7.99427 15.8311 7.65977 15.6753 7.33714 15.4971C7.296 15.4697 7.25486 15.456 7.21371 15.4286C7.18629 15.4149 7.17257 15.4011 7.15886 15.3874C6.912 15.2503 6.77486 15.1543 6.77486 15.1543C6.77486 15.1543 7.43314 16.2514 9.17486 16.7726C8.76343 17.2937 8.256 17.9109 8.256 17.9109C5.22514 17.8149 4.07314 15.8263 4.07314 15.8263C4.07314 11.4103 6.048 7.83086 6.048 7.83086C8.02286 6.34971 9.90171 6.39086 9.90171 6.39086L10.0389 6.55543C7.57029 7.26857 6.432 8.352 6.432 8.352C6.432 8.352 6.73371 8.18743 7.24114 7.95429C8.70857 7.30971 9.87429 7.13143 10.3543 7.09029C10.4366 7.07657 10.5051 7.06286 10.5874 7.06286C12.9656 6.74097 15.3843 7.19296 17.4857 8.352C17.4857 8.352 16.4023 7.32343 14.0709 6.61029L14.2629 6.39086C14.2629 6.39086 16.1417 6.34971 18.1166 7.83086C18.1166 7.83086 20.0914 11.4103 20.0914 15.8263C20.0914 15.8263 18.9257 17.8149 15.8949 17.9109Z" fill="#C4C4C4"/>
</svg>
