<?xml version="1.0" encoding="utf-8"?>
<!-- Generator: Adobe Illustrator 25.2.1, SVG Export Plug-In . SVG Version: 6.00 Build 0)  -->
<svg version="1.1" id="Layer_1" xmlns="http://www.w3.org/2000/svg" xmlns:xlink="http://www.w3.org/1999/xlink" x="0px" y="0px"
	 viewBox="0 0 28 34" style="enable-background:new 0 0 28 34;" xml:space="preserve">
<style type="text/css">
	.st0{display:none;fill:#26293B;enable-background:new    ;}
	.st1{fill:#43465A;}
	.st2{fill:#181A28;}
	.st3{fill:none;stroke:#181A28;stroke-width:2;}
</style>
<ellipse class="st0" cx="14" cy="16.9" rx="40" ry="40"/>
<path class="st1" d="M2,32V2.4C2,2.2,2.2,2,2.4,2c0,0,0,0,0,0h23.2C25.8,2,26,2.2,26,2.4c0,0,0,0,0,0V25l-3.5,3.5L19,32H2z"/>
<circle class="st2" cx="8" cy="15" r="2"/>
<circle class="st2" cx="20" cy="15" r="2"/>
<path class="st2" d="M5.3,10.9C5,10.4,5.2,9.8,5.6,9.5c0,0,0,0,0,0l1.7-1c0.5-0.3,1.1-0.1,1.3,0.4c0.2,0.5,0.1,1-0.3,1.3l-1.7,1
	C6.2,11.5,5.5,11.3,5.3,10.9z"/>
<path class="st2" d="M19.3,8.9c0.3-0.5,0.9-0.6,1.4-0.4l1.7,1c0.5,0.3,0.6,0.9,0.4,1.4c0,0,0,0,0,0c-0.3,0.5-0.9,0.6-1.4,0.4l-1.7-1
	C19.2,10,19,9.3,19.3,8.9z"/>
<path class="st2" d="M12,18h4v2c0,1.1-0.9,2-2,2s-2-0.9-2-2V18z"/>
<path class="st3" d="M1,32V3c0-1.1,0.9-2,2-2h22c1.1,0,2,0.9,2,2v21.6c0,0.3-0.1,0.5-0.3,0.7l-7.4,7.4c-0.2,0.2-0.4,0.3-0.7,0.3H2
	C1.4,33,1,32.6,1,32L1,32z"/>
<path class="st3" d="M26,25h-6c-0.6,0-1,0.4-1,1v6"/>
</svg>
