<?xml version="1.0" encoding="utf-8"?>
<!-- Generator: Adobe Illustrator 25.2.1, SVG Export Plug-In . SVG Version: 6.00 Build 0)  -->
<svg version="1.1" id="Layer_1" xmlns="http://www.w3.org/2000/svg" xmlns:xlink="http://www.w3.org/1999/xlink" x="0px" y="0px"
	 viewBox="0 0 45.7 27.8" style="enable-background:new 0 0 45.7 27.8;" xml:space="preserve">
<style type="text/css">
	.st0{display:none;fill:#072827;stroke:#8C90A8;stroke-width:4;stroke-miterlimit:10;}
	.st1{display:none;fill:none;stroke:#8C90A8;stroke-width:2;}
	.st2{fill:none;}
	.st3{fill:#8C90A8;}
</style>
<rect x="-342.3" y="-315.8" class="st0" width="784.5" height="708.4"/>
<path class="st1" d="M22.7,4.8L23,5.2l0.3-0.3l1.9-1.9c2.6-2.5,6.7-2.5,9.3,0c2.5,2.5,2.6,6.5,0.1,9c0,0-0.1,0.1-0.1,0.1L23,23.4
	L11.5,12c-2.5-2.5-2.6-6.5-0.1-9c0,0,0.1-0.1,0.1-0.1c2.6-2.5,6.7-2.5,9.3,0L22.7,4.8z"/>
<g>
	<path class="st2" d="M26.6,14.5c0-0.4,0-0.8-0.1-1.2H15.8v2.5h5.9l-0.1,1.3c-0.1,3.1-2.8,5.1-6.7,5.1c-5.5,0-8.9-4.2-8.9-8.3
		c0-4.5,3.9-8.3,8.4-8.3c1.7,0,3.1,0.2,4.6,1.2l2.3-3.1c-1.7-1.2-4-1.8-6.9-1.9C7.5,1.8,1.8,7.2,1.8,13.9c0,6.8,5.7,12.1,13,12.1
		c3.6,0,6.9-1.4,9.1-3.9C25.6,20.1,26.6,17.4,26.6,14.5z"/>
	<path class="st3" d="M28.1,11.9l-0.1-0.4H14v6.1h5.8c-0.4,1.8-2.2,2.9-4.8,2.9c-4.6,0-7.1-3.4-7.1-6.6c0-3.6,3-6.6,6.6-6.6
		c2,0,3.3,0.5,4.5,1.6l0.4,0.4l4.3-6l-0.3-0.3c-2-1.9-5.3-3-8.9-3.1h0C6.5,0,0,6.2,0,13.9c0,7.8,6.5,13.8,14.7,13.8
		c4.1,0,7.9-1.6,10.4-4.5c2.1-2.4,3.2-5.4,3.2-8.8C28.4,13.7,28.3,12.9,28.1,11.9z M14.7,26c-7.3,0-13-5.3-13-12.1
		c0-6.7,5.7-12.1,12.8-12.1c2.8,0,5.1,0.7,6.9,1.9l-2.3,3.1c-1.5-1-2.9-1.2-4.6-1.2c-4.6,0-8.4,3.8-8.4,8.3c0,4.1,3.3,8.3,8.9,8.3
		c3.9,0,6.5-2.1,6.7-5.1l0.1-1.3h-5.9v-2.5h10.7c0,0.4,0.1,0.8,0.1,1.2c0,3-0.9,5.6-2.7,7.7C21.7,24.6,18.4,26,14.7,26z"/>
</g>
<g>
	<path class="st3" d="M23.5,3.1l0.3,0.3l-4.3,6L19,8.9c-0.2-0.2-0.3-0.3-0.5-0.4c-0.4,0.9-0.7,1.9-0.9,3h1.8
		c1.2-5.5,6.4-9.7,12.5-9.7c2.8,0,5.1,0.7,6.9,1.9l-2.3,3.1c-1.5-1-2.9-1.2-4.6-1.2c-3.7,0-7,2.5-8,5.9h1.9c1-2.4,3.4-4.1,6.2-4.1
		c2,0,3.3,0.5,4.5,1.6l0.4,0.4l4.3-6l-0.3-0.3c-2-1.9-5.3-3-8.9-3.1h0c-3.3,0-6.3,1.1-8.8,2.8C23.3,2.9,23.4,3,23.5,3.1z"/>
	<path class="st3" d="M45.5,11.9l-0.1-0.4h-14v6.1h5.8c-0.4,1.8-2.2,2.9-4.8,2.9c-2,0-3.5-0.6-4.7-1.6c-0.2,0.6-0.4,1.1-0.7,1.7
		c1.4,1,3.2,1.7,5.4,1.7c3.9,0,6.5-2.1,6.7-5.1l0.1-1.3h-5.9v-2.5h10.7c0,0.4,0.1,0.8,0.1,1.2c0,3-0.9,5.6-2.7,7.7
		c-2.2,2.5-5.5,3.9-9.1,3.9c-2.8,0-5.4-0.8-7.5-2.2c-0.4,0.4-0.9,0.8-1.4,1.2c2.5,1.7,5.5,2.7,8.9,2.7c4.1,0,7.9-1.6,10.4-4.5
		c2.1-2.4,3.2-5.4,3.2-8.8C45.7,13.7,45.7,12.9,45.5,11.9z"/>
</g>
</svg>
