<svg width="24" height="28" viewBox="0 0 24 28" fill="none" xmlns="http://www.w3.org/2000/svg">
<path d="M12.6064 0.0236263C14.1128 0 15.6106 0.0140007 17.1067 0C17.1973 1.78597 17.831 3.60519 19.1207 4.86788C20.4079 6.16208 22.2285 6.75449 24 6.95487V11.653C22.3399 11.5979 20.672 11.2478 19.1656 10.5233C18.5095 10.2223 17.8983 9.83465 17.3001 9.43825C17.2923 12.8474 17.3139 16.2522 17.2785 19.6474C17.1887 21.2785 16.6578 22.9017 15.722 24.2458C14.2164 26.4833 11.6032 27.942 8.91928 27.9875C7.273 28.0829 5.62844 27.6278 4.22561 26.7896C1.90078 25.4 0.264857 22.8562 0.02659 20.1261C-0.00342221 19.5479 -0.00803098 18.9686 0.0127774 18.39C0.219966 16.17 1.30339 14.0462 2.98507 12.6015C4.8912 10.9188 7.56134 10.1173 10.0614 10.5916C10.0847 12.3198 10.0165 14.0462 10.0165 15.7745C8.87439 15.3999 7.53975 15.505 6.5418 16.2076C5.81167 16.6952 5.25991 17.4125 4.97148 18.2491C4.73322 18.8406 4.80142 19.4978 4.81523 20.1261C5.08889 22.0407 6.90524 23.6499 8.84418 23.4758C10.1296 23.4618 11.3615 22.7057 12.0314 21.5988C12.2481 21.2111 12.4907 20.8147 12.5036 20.3588C12.6167 18.2719 12.5718 16.1936 12.5857 14.1066C12.5951 9.40325 12.5718 4.713 12.6072 0.0245013L12.6064 0.0236263Z" fill="#C4C4C4"/>
</svg>
