<svg width="31" height="26" viewBox="0 0 31 26" fill="none" xmlns="http://www.w3.org/2000/svg">
<path d="M31 2.9893C29.86 3.49445 28.6353 3.83577 27.3479 3.99005C28.6763 3.19517 29.6701 1.94413 30.144 0.470363C28.8959 1.21169 27.5299 1.73351 26.1055 2.01313C25.1476 0.99035 23.8788 0.312436 22.4961 0.0846368C21.1135 -0.143163 19.6943 0.0918967 18.4589 0.753321C17.2235 1.41475 16.241 2.46553 15.664 3.74253C15.087 5.01953 14.9478 6.4513 15.2679 7.81556C12.739 7.68858 10.265 7.03127 8.00657 5.88629C5.74812 4.74131 3.75566 3.13424 2.1585 1.16939C1.61239 2.11143 1.29838 3.20365 1.29838 4.36687C1.29777 5.41403 1.55564 6.44515 2.04912 7.36875C2.54259 8.29234 3.25641 9.07986 4.12723 9.66141C3.11731 9.62928 2.12966 9.35639 1.2465 8.86546V8.94737C1.2464 10.4161 1.75443 11.8395 2.68439 12.9763C3.61435 14.1131 4.90895 14.8931 6.34854 15.184C5.41167 15.4375 4.42942 15.4749 3.476 15.2932C3.88216 16.5569 4.67334 17.662 5.73876 18.4537C6.80419 19.2454 8.09052 19.6842 9.41769 19.7085C7.16475 21.4771 4.38239 22.4364 1.51819 22.4322C1.01083 22.4324 0.503892 22.4027 0 22.3435C2.90733 24.2128 6.29167 25.2049 9.74808 25.201C21.4485 25.201 27.8448 15.5103 27.8448 7.10561C27.8448 6.83256 27.838 6.55677 27.8257 6.28372C29.0699 5.38396 30.1438 4.26979 30.9973 2.9934L31 2.9893Z" fill="#C4C4C4"/>
</svg>
