<?xml version="1.0" standalone="no"?>
<!DOCTYPE svg PUBLIC "-//W3C//DTD SVG 20010904//EN"
 "http://www.w3.org/TR/2001/REC-SVG-20010904/DTD/svg10.dtd">
<svg version="1.0" xmlns="http://www.w3.org/2000/svg"
 width="664.000000pt" height="664.000000pt" viewBox="0 0 664.000000 664.000000"
 preserveAspectRatio="xMidYMid meet">
<metadata>
Created by potrace 1.11, written by Peter Selinger 2001-2013
</metadata>
<g transform="translate(0.000000,664.000000) scale(0.100000,-0.100000)"
fill="#000000" stroke="none">
<path d="M3058 6165 c-2 -2 -35 -6 -73 -10 -94 -8 -179 -19 -235 -30 -14 -3
-38 -8 -55 -11 -16 -3 -59 -12 -95 -20 -36 -9 -76 -18 -90 -20 -29 -6 -286
-90 -315 -104 -94 -43 -198 -90 -200 -90 -20 0 -363 -217 -399 -253 -7 -7 -32
-28 -56 -47 -24 -19 -54 -46 -67 -60 -30 -31 -81 -135 -86 -176 -4 -25 -38
-64 -154 -180 -83 -82 -158 -161 -169 -175 -10 -14 -37 -50 -60 -80 -82 -109
-136 -192 -186 -287 -79 -150 -131 -259 -129 -269 1 -2 -10 -27 -23 -57 -26
-58 -94 -261 -99 -295 -2 -11 -6 -24 -10 -27 -4 -4 -7 -17 -7 -30 0 -14 -15
-34 -42 -56 -83 -64 -160 -139 -220 -213 -39 -48 -108 -153 -108 -164 0 -6 -4
-11 -10 -11 -5 0 -9 -3 -8 -7 1 -5 -11 -33 -25 -63 -15 -30 -27 -60 -27 -67 0
-6 -3 -13 -8 -15 -10 -4 -59 -161 -78 -253 -14 -65 -18 -127 -19 -265 0 -166
7 -233 31 -320 8 -30 17 -63 19 -74 19 -81 126 -319 160 -353 8 -8 15 -18 15
-23 0 -29 185 -234 279 -310 24 -19 49 -40 55 -46 47 -44 230 -155 356 -216
72 -34 99 -55 175 -133 50 -51 117 -114 150 -141 33 -27 62 -51 65 -54 9 -10
155 -117 185 -136 17 -10 32 -21 35 -24 7 -8 170 -110 176 -110 2 0 22 -11 44
-25 63 -40 171 -95 185 -95 7 0 15 -4 17 -9 6 -16 336 -137 425 -156 10 -2 46
-11 80 -20 35 -9 71 -18 80 -20 10 -2 38 -8 63 -13 25 -6 61 -13 80 -16 19 -3
46 -8 60 -11 14 -3 41 -7 60 -10 19 -3 44 -7 55 -9 29 -6 142 -18 196 -21 26
-1 50 -5 55 -8 22 -13 514 2 594 18 13 2 42 7 65 10 77 11 90 13 135 21 25 4
50 8 55 9 6 1 12 3 15 4 3 2 14 4 25 5 18 3 97 19 150 31 18 4 65 16 118 30 9
3 25 7 35 9 50 12 276 93 339 122 39 17 74 30 77 26 3 -3 6 0 6 6 0 7 6 12 13
12 7 0 59 27 116 60 57 33 108 60 113 60 4 0 8 5 8 10 0 6 5 10 10 10 9 0 149
88 160 101 3 3 20 14 38 24 17 11 32 23 32 27 0 4 7 8 15 8 7 0 18 6 22 13 4
7 24 24 43 37 60 41 171 140 261 232 77 79 97 94 205 147 118 59 231 129 332
206 71 53 209 189 252 248 19 26 45 60 57 74 12 15 28 40 34 55 6 15 15 28 20
28 5 0 9 7 9 15 0 9 9 28 21 44 11 15 21 34 23 42 1 8 9 28 18 44 19 35 61
161 76 225 6 25 13 56 17 70 20 86 28 346 13 460 -30 222 -141 488 -276 655
-47 59 -154 163 -206 201 -34 24 -56 49 -59 64 -7 35 -15 69 -22 90 -3 10 -7
27 -10 37 -4 23 -82 241 -95 268 -15 32 -61 139 -62 145 0 3 -9 17 -20 33 -11
15 -16 27 -12 27 3 0 2 6 -3 13 -6 6 -27 43 -48 82 -84 155 -210 328 -329 454
-59 62 -92 94 -181 176 -35 33 -46 51 -59 103 -9 35 -30 83 -47 108 -65 95
-300 268 -520 383 -99 52 -241 117 -274 125 -5 2 -17 6 -25 9 -93 38 -299 96
-395 112 -16 3 -48 10 -70 15 -49 11 -117 21 -265 37 -61 6 -586 14 -592 8z"/>
</g>
</svg>
