<svg id="Layer_1" data-name="Layer 1" xmlns="http://www.w3.org/2000/svg" viewBox="0 0 1000 221.72"><defs><style>.cls-1{fill:#44c7f0;}</style></defs><path class="cls-1" d="M1000,219c-7.36,0-14.72-.17-22.08,0a10.12,10.12,0,0,1-10.39-10.42c.18-2.58,0-5.17,0-8-1,1.22-1.89,2.25-2.81,3.22a54,54,0,0,1-30.5,16.63c-22.43,4-42.35-1.51-59.23-16.94-10.64-9.73-17.35-21.93-20.74-35.88-4.21-17.32-3.69-34.54,2.76-51.22,9-23.13,25.57-38.05,49.79-43.89a60.58,60.58,0,0,1,41.27,4.16,52.24,52.24,0,0,1,18.92,15l.49.55V1.6h31c.48,0,1,0,1.44,0ZM927.82,100.38c-2,.1-3.48.09-5,.27-15,1.82-26,9.57-32.91,22.95-4.92,9.53-6.08,19.75-4.64,30.29,1.54,11.24,6.28,20.89,15,28.36,8.9,7.67,19.3,11.18,31,10.06a39.78,39.78,0,0,0,30.12-17.86c11-16,12.07-33,3.49-50.34C957.28,108.82,944.62,100.84,927.82,100.38Z"/><path class="cls-1" d="M455.88,91.93V1.68h32.36V219H466a9.8,9.8,0,0,1-10.18-10.19v-8.08c-1.88,2-3.55,3.94-5.44,5.69a56,56,0,0,1-32.83,14.8c-18.93,2-36-2.7-50.85-14.71A69.35,69.35,0,0,1,343,169.24c-5.12-19.51-4.29-38.79,4.14-57.24,10-21.8,26.94-35.32,50.49-40.06a60.23,60.23,0,0,1,38.7,4.67,52.7,52.7,0,0,1,18.85,14.85c.13.15.26.3.4.44S455.66,91.91,455.88,91.93Zm2.89,54.13c-.24-2.23-.38-4.91-.83-7.54a47.51,47.51,0,0,0-12.75-25.78,39.17,39.17,0,0,0-29.93-12.25c-17.18.35-29.61,8.49-37.34,23.69-4.3,8.47-5.52,17.6-4.67,27,1,11.37,5.23,21.3,13.43,29.4a40.79,40.79,0,0,0,51.62,5C452,176.25,458.05,162.74,458.77,146.06Z"/><path class="cls-1" d="M116,91.9V74.1h32.36V219h-22.3a9.75,9.75,0,0,1-10-10V200.6a4.94,4.94,0,0,0-.56.49,52.69,52.69,0,0,1-31.45,19c-24.11,4.74-45.23-1.41-62.75-18.78-10-9.91-16.09-22.09-19-35.77-3.56-16.44-3-32.78,3-48.58C14.1,93.52,30.76,78.25,55.3,72.49c18.26-4.28,35.49-1.3,50.85,10A60.12,60.12,0,0,1,116,91.9Zm-40.26,8.5c-13.81.25-25.07,5.64-33.43,16.71a45.56,45.56,0,0,0-8.87,23.56c-1,10,.28,19.74,5.11,28.68,8,14.81,20.49,22.9,37.45,23.1,12.73.15,23.21-5.24,31.42-14.88,13.47-15.78,15.12-38.91,4-56.87C103.29,107.48,91.35,100.7,75.74,100.4Z"/><path class="cls-1" d="M694.63,221.72c-20.5-.13-37.1-5.39-51.37-17.14-13.78-11.35-22.07-26-25.21-43.52-2.75-15.3-1.64-30.35,4.4-44.78,8.19-19.56,22.69-32.69,42.28-40.39a74.41,74.41,0,0,1,29.55-5.15c19.31.55,36.36,6.94,50.6,20.14a72.5,72.5,0,0,1,23.1,44c3.43,24-3.23,45.18-19.32,63.21-11.51,12.9-26.23,20.13-43.27,22.63C701.13,221.31,696.81,221.52,694.63,221.72ZM649.18,146.6A47,47,0,0,0,651.61,162a43.33,43.33,0,0,0,38.57,29.8c14.08.76,25.86-4.56,34.84-15.35,10.33-12.41,13-26.77,9.31-42.31a42.54,42.54,0,0,0-40.27-33.09c-14.12-.46-25.83,4.83-34.8,15.74C652.17,125.43,649.28,135.57,649.18,146.6Z"/><path class="cls-1" d="M216.54,219c-4.65,0-9.09,0-13.53,0-3.59,0-7.21.13-10.78-.17-4.89-.41-8.07-4.12-8.16-9V74.06h32.41V91.65a5.63,5.63,0,0,0,.51-.45c7.34-10.28,17.4-16.44,29.62-19,12.71-2.71,25.25-2,37.19,3.4,15.78,7.19,25.23,19.73,29.71,36.24a55.9,55.9,0,0,1,1.82,14.69q0,45.38,0,90.75V219H293.58c-6.51,0-10.73-4.22-10.73-10.73,0-25.25.1-50.51-.05-75.76-.06-9.83-3.48-18.46-10.91-25.19a26.56,26.56,0,0,0-16.2-6.71,32.45,32.45,0,0,0-26.38,9.58,41.29,41.29,0,0,0-11.47,21.19,53.8,53.8,0,0,0-1.24,11c-.11,25-.06,49.94-.06,74.92Z"/><path class="cls-1" d="M524,74.07h32.38V97.34l.27.07c.16-.34.33-.67.49-1,5.77-12.19,15-20.21,28.35-23a56,56,0,0,1,20.61,0c.27,0,.53.15.82.23v33.27c-2.57-.62-5.06-1.35-7.59-1.82-10.61-1.93-20.39-.23-28.74,7-6.22,5.41-10,12.36-12.25,20.19a49.82,49.82,0,0,0-1.91,13.84V218.9c-.44,0-.78.08-1.13.08-7.2,0-14.39,0-21.59,0-5.16,0-8.79-3-9.61-7.75a10.4,10.4,0,0,1-.1-1.67V74.07Z"/><path class="cls-1" d="M794.08,74.07h32.38V218.9c-.34,0-.68.07-1,.08-7.2,0-14.4,0-21.6,0-5.09,0-8.7-2.84-9.59-7.47a11,11,0,0,1-.16-2.15q0-66.94,0-133.9Z"/><path class="cls-1" d="M810,42.84a21.42,21.42,0,1,1,21.5-21.32A21.29,21.29,0,0,1,810,42.84Z"/></svg>