<svg id="Layer_1" data-name="Layer 1" xmlns="http://www.w3.org/2000/svg" viewBox="0 0 190.73 128.92"><defs><style>.cls-1{fill:#44c7f0;}.cls-2{fill:#fff;}</style></defs><g id="Foreground"><path class="cls-1" d="M9.2,46a9.21,9.21,0,1,0,9.2,9.2A9.2,9.2,0,0,0,9.2,46Zm5.71,9.2V60l-4.13-2.39V60L6.64,57.62,2.51,55.23l4.13-2.38,4.14-2.39v2.39l4.13-2.39Z"/><path class="cls-1" d="M180.3,67.21a10.43,10.43,0,1,0,10.43,10.43A10.43,10.43,0,0,0,180.3,67.21Zm3.14,13.1L178.82,83V80.31L174.19,83V72.3L178.82,75V72.3L183.44,75l4.63,2.67Z"/><path class="cls-2" d="M101.56,1.63a9.2,9.2,0,1,0,9.2,9.2A9.2,9.2,0,0,0,101.56,1.63ZM106,15.28H97.1V6.37H106Z"/></g></svg>