<svg id="Layer_1" data-name="Layer 1" xmlns="http://www.w3.org/2000/svg" viewBox="0 0 190.73 128.92"><defs><style>.cls-1{fill:#fff;}.cls-2{fill:#44c7f0;}</style></defs><g id="Background"><path class="cls-1" d="M49.81,0A10.43,10.43,0,1,0,60.23,10.43,10.43,10.43,0,0,0,49.81,0Zm1.1,13-4.49,2.59V5.24l4.49,2.6,4.49,2.59Z"/><path class="cls-1" d="M177.06,16.57a9.2,9.2,0,1,0,9.2,9.2A9.19,9.19,0,0,0,177.06,16.57Zm0,15.57a6.37,6.37,0,1,1,6.37-6.37A6.37,6.37,0,0,1,177.06,32.14Z"/><path class="cls-2" d="M126.51,103.5c-4.07,0-7.36,3.62-7.36,8.08,0-4.46-3.3-8.08-7.37-8.08,4.07,0,7.37-3.61,7.37-8.07C119.15,99.89,122.44,103.5,126.51,103.5Z"/><path class="cls-1" d="M45,56.34A5.81,5.81,0,0,0,39.5,62.4,5.81,5.81,0,0,0,34,56.34a5.8,5.8,0,0,0,5.52-6.05A5.8,5.8,0,0,0,45,56.34Z"/><path class="cls-1" d="M30.83,118.49c-5.25,0-9.51,4.67-9.51,10.43,0-5.76-4.26-10.43-9.51-10.43,5.25,0,9.51-4.66,9.51-10.42C21.32,113.83,25.58,118.49,30.83,118.49Z"/></g></svg>