<svg id="Layer_1" data-name="Layer 1" xmlns="http://www.w3.org/2000/svg" viewBox="0 0 190.73 128.92"><defs><style>.cls-1{fill:#44c7f0;}.cls-2{fill:#fff;}</style></defs><g id="Astro"><path class="cls-1" d="M151.55,20.18c-8.54-4.64-22.39.35-22.39.35,7.76-4.52,17.36-3.47,17.36-3.47-5.48-3.63-21.54-5.23-31.92.3S98.72,35.74,96.87,39.6s-3.17,7-1.83,8.86,5.35,2.85,5.35,2.85l3.34-4.19a10.63,10.63,0,0,1,2.67-5.35C101.72,58.66,109,67.11,118,74.89c8.48,7.39,20.4,7.68,30.93,1,8.81-5.58,12.76-16.39,14.08-25.55C163.44,47,166.93,28.57,151.55,20.18Zm10.88,24.94c-4.21-20-19.38-18.93-25.91-17.81,0,0,19.28-.81,22.27,14,2.63,13.08-4,23.79-6.76,27.63-3.34,4.68-12.06,8.73-20.75,7.24S113.44,66.52,112.1,55s4.51-20.58,15.55-27.1,22.72-3.3,25.91-1C163.06,33.69,162.43,45.12,162.43,45.12Z"/><path class="cls-2" d="M85.84,29.56C86.34,33.24,88,45.45,88,45.45s3,.86,4.18,2a39.91,39.91,0,0,1,9.37-20.6s-13.88-4-19.23.18C82.33,27.05,85.34,25.88,85.84,29.56Z"/><path class="cls-2" d="M84.84,44.44s-1-9.36-1.51-12.54-2.51-3.68-2.51-3.68c-6.19,2-12.37,13.21-12.37,13.21C75.64,45.78,84.84,44.44,84.84,44.44Z"/><path class="cls-2" d="M57.24,69.42v-1a2,2,0,0,1,1.26-1.84L67.65,63s-8-1.12-13.08-5a51,51,0,0,0-5.52,5.85C47.54,66,46.87,72,47.54,76.22l8.89-5.37A1.67,1.67,0,0,0,57.24,69.42Z"/><path class="cls-1" d="M105.74,64c-3.06-6.23-10.37-14.55-20.9-15.89S60,44.27,56.19,35.75s-6.81-7.36-6.14-1.68c0,0-8-5.81-10.7-4.49s-1.68,5.44-.84,6.73c0,0-1.84.61.17,3.78S48.21,55.31,62.93,59s19.4,10.2,19.4,10.2S74,64,69.45,66s-10,5-10.2,7.35c0,0-7.69,2.51-11,4.85s-9.87,7.7-15.72,4.69c0,0,5.85-1.34,6-3.85s-3-3.51-8-2.84S22.12,78.84,22,83.8,19.28,104.65,34.16,106s22-6.19,22-6.19,9.08,9.2,18.28,12,24.25-2.34,30.43-7.53,20.41-15.22,20.91-20.73C125.81,83.58,112.15,77,105.74,64Z"/><path class="cls-1" d="M22.4,77.64c3.6-2.59,9.09-5.44,15.44-2.93,0,0-2-6.19-7-6.19S15.6,74.71,13.43,80.23s3.69,6.36,6,6.52C19.45,86.75,18.79,80.23,22.4,77.64Z"/><path class="cls-1" d="M57.42,105.71c-6.54,5.77-17.92,6.62-17.92,6.62,10.69,11.31,33,1.54,33,1.54C62.5,111.18,57.42,105.71,57.42,105.71Z"/><path class="cls-1" d="M140.77,86.32c2.8-2.62,1.77-4.52-3.87-1.8-2.68,1.3-6,.87-9.35-.35-.22,2.22-2.58,5.17-5.88,8.55.56.24,1.13.51,1.72.8,9.14,4.48,18.2,1.57,20.6.81s1.73-1.87,1.73-1.87c1-.3,3.28-2,2.48-3.81S140.77,86.32,140.77,86.32Z"/><path class="cls-2" d="M146.14,32.92a1.21,1.21,0,0,1-.37-.07,16.48,16.48,0,0,0-2.85-.88,1,1,0,0,1,.36-1.92,19,19,0,0,1,3.23,1,1,1,0,0,1-.37,1.88Z"/><path class="cls-2" d="M155.4,54.21a.73.73,0,0,1-.25,0,1,1,0,0,1-.69-1.2c3-11.17-3.34-16.71-3.61-16.94a1,1,0,0,1,1.25-1.5c.31.27,7.62,6.53,4.25,19A1,1,0,0,1,155.4,54.21Z"/></g></svg>