<?xml version="1.0" encoding="utf-8"?>
<!-- Generator: Adobe Illustrator 24.1.1, SVG Export Plug-In . SVG Version: 6.00 Build 0)  -->
<svg version="1.1" id="Layer_1" xmlns="http://www.w3.org/2000/svg" xmlns:xlink="http://www.w3.org/1999/xlink" x="0px" y="0px"
	 viewBox="0 0 258.4 47.25" style="enable-background:new 0 0 258.4 47.25;" xml:space="preserve">
<style type="text/css">
	.st0{display:none;}
	.st1{display:inline;fill:#44C7F1;}
	.st2{font-family:'Ubuntu-Bold';}
	.st3{font-size:65.3512px;}
	.st4{letter-spacing:9;}
	.st5{display:inline;fill:#FFFFFF;}
	.st6{fill:#44C7F1;}
	.st7{fill:#FFFFFF;}
</style>
<text transform="matrix(1 0 0 1 -3.9914 46.9274)" class="st0"><tspan x="0" y="0" class="st1 st2 st3 st4">H</tspan><tspan x="57.12" y="0" class="st5 st2 st3 st4">OVE</tspan><tspan x="222.98" y="0" class="st1 st2 st3 st4">R</tspan></text>
<g>
	<path class="st6" d="M27.32,1.05h10.19v45.29H27.32V27.12H10.19v19.21H0V1.05h10.19v17.32h17.12V1.05z"/>
	<path class="st7" d="M100.25,23.66c0,3.88-0.58,7.29-1.73,10.23c-1.15,2.94-2.73,5.4-4.74,7.38c-2,1.98-4.39,3.48-7.16,4.48
		c-2.77,1-5.74,1.5-8.92,1.5c-3.09,0-6.01-0.5-8.76-1.5c-2.75-1-5.14-2.49-7.19-4.48c-2.05-1.98-3.66-4.44-4.84-7.38
		c-1.18-2.94-1.76-6.35-1.76-10.23c0-3.88,0.61-7.29,1.83-10.23c1.22-2.94,2.86-5.41,4.93-7.42c2.07-2,4.47-3.51,7.19-4.51
		C71.83,0.5,74.7,0,77.7,0c3.09,0,6.01,0.5,8.76,1.5c2.75,1,5.14,2.51,7.19,4.51c2.05,2,3.66,4.48,4.84,7.42
		C99.66,16.37,100.25,19.78,100.25,23.66z M65.68,23.66c0,2.22,0.27,4.23,0.82,6.01c0.54,1.79,1.33,3.32,2.35,4.61
		c1.02,1.29,2.28,2.28,3.76,2.97c1.48,0.7,3.18,1.05,5.1,1.05c1.87,0,3.56-0.35,5.07-1.05c1.5-0.7,2.77-1.69,3.79-2.97
		c1.02-1.28,1.81-2.82,2.35-4.61c0.54-1.79,0.82-3.79,0.82-6.01c0-2.22-0.27-4.24-0.82-6.04c-0.54-1.81-1.33-3.35-2.35-4.64
		c-1.02-1.28-2.29-2.28-3.79-2.97c-1.5-0.7-3.19-1.05-5.07-1.05c-1.92,0-3.62,0.36-5.1,1.08c-1.48,0.72-2.74,1.72-3.76,3.01
		c-1.02,1.29-1.81,2.83-2.35,4.64C65.95,19.49,65.68,21.48,65.68,23.66z"/>
	<path class="st7" d="M129.8,46.33c-1.8-3.8-3.58-7.75-5.33-11.84c-1.75-4.09-3.42-8.14-5-12.14c-1.58-4-3.03-7.84-4.35-11.5
		c-1.32-3.66-2.47-6.93-3.43-9.8h11.24c0.85,2.62,1.79,5.45,2.83,8.47c1.04,3.02,2.09,6.04,3.17,9.04c1.08,3,2.11,5.88,3.09,8.63
		c0.99,2.75,1.93,5.13,2.83,7.13c0.85-1.99,1.78-4.36,2.79-7.11c1.01-2.75,2.05-5.63,3.13-8.63c1.08-3,2.13-6.02,3.17-9.04
		c1.04-3.02,1.98-5.85,2.83-8.49h10.85c-1.02,2.89-2.18,6.16-3.5,9.81c-1.32,3.65-2.76,7.49-4.33,11.49
		c-1.57,4.01-3.22,8.06-4.96,12.16c-1.74,4.1-3.51,8.04-5.31,11.83H129.8z"/>
	<path class="st7" d="M172.59,46.33V1.05h30.58v8.56h-20.39v8.89h18.1v8.36h-18.1v10.91h21.89v8.56H172.59z"/>
	<path class="st6" d="M234.61,0.52c6.8,0,12,1.21,15.62,3.63s5.42,6.18,5.42,11.27c0,3.18-0.73,5.76-2.19,7.74
		c-1.46,1.98-3.56,3.54-6.31,4.67c0.91,1.13,1.87,2.43,2.88,3.89c1,1.46,1.99,2.99,2.97,4.58c0.98,1.59,1.93,3.25,2.84,4.97
		c0.91,1.72,1.76,3.41,2.55,5.07H247c-0.83-1.48-1.67-2.98-2.53-4.51c-0.85-1.52-1.73-3.01-2.62-4.44s-1.78-2.8-2.66-4.08
		c-0.88-1.28-1.75-2.45-2.63-3.5h-5.03v16.53h-10.2V1.7c2.22-0.44,4.52-0.74,6.89-0.92C230.61,0.61,232.73,0.52,234.61,0.52z
		 M235.2,9.21c-0.74,0-1.41,0.02-1.99,0.07c-0.59,0.04-1.14,0.09-1.67,0.13V21.7h2.88c3.83,0,6.58-0.48,8.23-1.44
		c1.65-0.96,2.48-2.59,2.48-4.9c0-2.22-0.84-3.8-2.52-4.74C240.94,9.68,238.46,9.21,235.2,9.21z"/>
</g>
</svg>
