<svg id="Layer_1" data-name="Layer 1" xmlns="http://www.w3.org/2000/svg" viewBox="0 0 88.17 43.74"><defs><style>.cls-1{fill:#44c7f0;}</style></defs><path class="cls-1" d="M11.92,22a28.27,28.27,0,0,1,1.36-9,18.78,18.78,0,0,1,5-8,17.38,17.38,0,0,1,7-4,23.32,23.32,0,0,1,8-.91,21.45,21.45,0,0,1,6.43,1.25,17.49,17.49,0,0,1,9.75,8.7,23.14,23.14,0,0,1,2.16,6.78A31.62,31.62,0,0,1,52,23.72a25.47,25.47,0,0,1-1.9,8.69,17.71,17.71,0,0,1-6.67,8.18,18.6,18.6,0,0,1-6.76,2.71,24.56,24.56,0,0,1-6.05.4A20.15,20.15,0,0,1,21.22,41a17.44,17.44,0,0,1-6.72-7.24,22.93,22.93,0,0,1-2.2-6.89A32.82,32.82,0,0,1,11.92,22Zm32.43-.09c-.07-.95-.12-1.9-.21-2.84a18,18,0,0,0-1.22-5,12.42,12.42,0,0,0-3.53-5,11.06,11.06,0,0,0-6.8-2.54,12,12,0,0,0-5.81,1.1,11.31,11.31,0,0,0-5.1,5,17.6,17.6,0,0,0-1.9,6.65A25,25,0,0,0,20,26.19a16.31,16.31,0,0,0,2,5.54,10.91,10.91,0,0,0,6,4.93,12.61,12.61,0,0,0,5.72.52,10.83,10.83,0,0,0,6-2.73A12.89,12.89,0,0,0,43.21,29,22.56,22.56,0,0,0,44.35,21.91Z"/><path class="cls-1" d="M55.08,31.14h7.05c.21,0,.28,0,.32.26a6.35,6.35,0,0,0,2.71,4.25,9.8,9.8,0,0,0,4.2,1.71,13.43,13.43,0,0,0,6.72-.43,7.07,7.07,0,0,0,3.46-2.37,4.93,4.93,0,0,0,.24-5.67A6.22,6.22,0,0,0,77.41,27a20.21,20.21,0,0,0-4.48-1.51c-2.21-.52-4.43-1-6.63-1.59a18,18,0,0,1-5.7-2.47,9.5,9.5,0,0,1-4.23-6.18A11.5,11.5,0,0,1,58.22,6a12.78,12.78,0,0,1,5.36-4.23A18.38,18.38,0,0,1,69.07.25a23.48,23.48,0,0,1,5.62,0,16.66,16.66,0,0,1,7.56,2.68,11.45,11.45,0,0,1,5,7.62c.11.62.14,1.26.2,1.89,0,0,0,.06,0,.11H80.28c0-.29-.09-.58-.15-.87A6.34,6.34,0,0,0,76.4,7.15a10.82,10.82,0,0,0-4.69-.91A10.94,10.94,0,0,0,67.55,7a6,6,0,0,0-3,2.4,4.7,4.7,0,0,0-.26,4.75,4.79,4.79,0,0,0,2,1.93,15.62,15.62,0,0,0,4.12,1.53c2,.5,4.07.94,6.11,1.43a24.59,24.59,0,0,1,6,2.16,11,11,0,0,1,4,3.39A9.42,9.42,0,0,1,88,28.72a13.54,13.54,0,0,1-.34,5.52,11.6,11.6,0,0,1-5.59,7,17.84,17.84,0,0,1-5.89,2.07,27.33,27.33,0,0,1-6.82.32,19.7,19.7,0,0,1-7.53-2,11.91,11.91,0,0,1-6.75-9.93C55.11,31.56,55.09,31.36,55.08,31.14Z"/><path class="cls-1" d="M.42,43V12H7.68V43Z"/><path class="cls-1" d="M0,4A4,4,0,0,1,4,0a4,4,0,1,1,0,7.93A4,4,0,0,1,0,4Z"/></svg>