<svg id="Layer_1" data-name="Layer 1" xmlns="http://www.w3.org/2000/svg" viewBox="0 0 216.1 250.71"><defs><style>.cls-1{fill:#d2d2d2;}</style></defs><path class="cls-1" d="M208.56,83.6c-42.49,24.34-34.67,83.37,7.54,100.28-3.09,6.23-5.83,12.6-9.3,18.55-8.38,14.39-17.26,28.45-30.16,39.42-10.95,9.31-23,11.57-36.15,5.42-11.22-5.27-22.73-8.85-35.17-6.47a92,92,0,0,0-18,5.53c-18,7.48-30.66,5.23-44.46-8.58-13.37-13.37-23-29.31-30.5-46.44C4.25,172.86-.21,153.42,0,133.18.3,106.53,9.46,84.13,32.33,68.73,48.09,58.12,65,55.54,83.15,61.43,88,63,92.9,64.71,97.76,66.4c10.71,3.74,21.18,3.08,31.62-1.2,11.47-4.71,23.27-8,35.87-6.57C183.3,60.63,197,70.1,208.56,83.6Z"/><path class="cls-1" d="M104.42,59.73C99.15,33.41,125.05,1.87,154.66,0,161.53,22.23,136.87,62.44,104.42,59.73Z"/></svg>